<?xml version="1.0" standalone="no"?>
<!DOCTYPE svg PUBLIC "-//W3C//DTD SVG 20010904//EN"
 "http://www.w3.org/TR/2001/REC-SVG-20010904/DTD/svg10.dtd">
<svg version="1.0" xmlns="http://www.w3.org/2000/svg"
 width="96.000000pt" height="96.000000pt" viewBox="0 0 96.000000 96.000000"
 preserveAspectRatio="xMidYMid meet">
<metadata>
Created by potrace 1.14, written by Peter Selinger 2001-2017
</metadata>
<g transform="translate(0.000000,96.000000) scale(0.100000,-0.100000)"
fill="#000000" stroke="none">
<path d="M367 834 c-4 -4 -7 -18 -7 -31 0 -23 -1 -23 -115 -23 -110 0 -117 -1
-140 -25 l-25 -24 0 -284 c0 -207 3 -286 12 -295 9 -9 79 -12 255 -12 229 0
243 -1 243 -18 0 -10 11 -24 24 -31 13 -7 29 -24 36 -36 25 -47 195 -47 220 0
7 12 23 28 35 35 48 26 47 195 -1 221 l-24 12 0 204 c0 203 0 204 -25 228 -23
24 -30 25 -139 25 l-115 0 -3 28 -3 27 -111 3 c-60 1 -113 -1 -117 -4z m153
-334 l0 -40 -40 0 -40 0 0 40 0 40 40 0 40 0 0 -40z m317 -180 c87 -52 83
-198 -6 -245 -98 -50 -211 16 -211 123 0 85 56 142 140 142 27 0 58 -8 77 -20z"/>
</g>
</svg>
